<?xml version="1.0" ?>
<!-- Uploaded to: SVG Repo, www.svgrepo.com, Generator: SVG Repo Mixer Tools -->
<svg width="800px" height="800px" viewBox="0 0 24 24" xmlns="http://www.w3.org/2000/svg">
<defs>
<style>.cls-1{fill:#ccc;}.cls-2{fill:#eaeaea;}.cls-3{fill:#47a6e3;}.cls-4{fill:#ffce69;}.cls-5{fill:#0e7cc9;}.cls-6{fill:#6c2e7c;}</style>
</defs>
<g id="Icons">
<rect class="cls-1" height="22" rx="4" width="22" x="1" y="1"/>
<rect class="cls-2" height="17" rx="4" width="22" x="1" y="1"/>
<path class="cls-3" d="M23,5V8H1V5A4,4,0,0,1,5,1H19A4,4,0,0,1,23,5Z"/>
</g>
<g data-name="Layer 4" id="Layer_4">
<circle class="cls-2" cx="5" cy="5" r="1"/>
<circle class="cls-4" cx="9" cy="5" r="1"/>
<circle class="cls-5" cx="19" cy="5" r="1"/>
<path class="cls-6" d="M19,0H5A5.006,5.006,0,0,0,0,5V19a5.006,5.006,0,0,0,5,5H19a5.006,5.006,0,0,0,5-5V5A5.006,5.006,0,0,0,19,0Zm3,19a3,3,0,0,1-3,3H5a3,3,0,0,1-3-3V5A3,3,0,0,1,5,2H19a3,3,0,0,1,3,3Z"/>
<path class="cls-6" d="M19,7H5A1,1,0,0,0,5,9H19a1,1,0,0,0,0-2Z"/>
</g>
</svg>